<mxfile host="app.diagrams.net" modified="2023-06-09T20:37:24.382Z" agent="Mozilla/5.0 (Windows NT 10.0; Win64; x64) AppleWebKit/537.36 (KHTML, like Gecko) Chrome/114.0.0.0 Safari/537.36" etag="hmjBVojITJyOEgPIQRGF" version="21.3.8" type="github">
  <diagram name="Page-1" id="5f0bae14-7c28-e335-631c-24af17079c00">
    <mxGraphModel dx="1500" dy="773" grid="1" gridSize="10" guides="1" tooltips="1" connect="1" arrows="1" fold="1" page="1" pageScale="1" pageWidth="1400" pageHeight="850" background="none" math="0" shadow="0">
      <root>
        <mxCell id="0" />
        <mxCell id="1" parent="0" />
        <mxCell id="AY5Ds7lLIV4l-bZscE6Y-1" value="Cliente&lt;br&gt;(Navegador)" style="rounded=0;whiteSpace=wrap;html=1;" vertex="1" parent="1">
          <mxGeometry x="80" y="400" width="160" height="80" as="geometry" />
        </mxCell>
        <mxCell id="AY5Ds7lLIV4l-bZscE6Y-3" value="Servidor&lt;br&gt;HTTP" style="rounded=0;whiteSpace=wrap;html=1;" vertex="1" parent="1">
          <mxGeometry x="320" y="200" width="120" height="480" as="geometry" />
        </mxCell>
        <mxCell id="AY5Ds7lLIV4l-bZscE6Y-4" value="" style="whiteSpace=wrap;html=1;aspect=fixed;" vertex="1" parent="1">
          <mxGeometry x="480" y="200" width="480" height="480" as="geometry" />
        </mxCell>
        <mxCell id="AY5Ds7lLIV4l-bZscE6Y-5" value="Contenedor del Servidor" style="text;html=1;strokeColor=none;fillColor=none;align=center;verticalAlign=middle;whiteSpace=wrap;rounded=0;" vertex="1" parent="1">
          <mxGeometry x="490" y="210" width="150" height="30" as="geometry" />
        </mxCell>
        <mxCell id="AY5Ds7lLIV4l-bZscE6Y-6" value="Controlador (Servlet)" style="swimlane;whiteSpace=wrap;html=1;startSize=40;" vertex="1" parent="1">
          <mxGeometry x="500" y="270" width="120" height="80" as="geometry" />
        </mxCell>
        <mxCell id="AY5Ds7lLIV4l-bZscE6Y-7" value="Vista (JSP)" style="swimlane;whiteSpace=wrap;html=1;" vertex="1" parent="1">
          <mxGeometry x="500" y="410" width="120" height="80" as="geometry" />
        </mxCell>
        <mxCell id="AY5Ds7lLIV4l-bZscE6Y-8" value="" style="swimlane;startSize=0;" vertex="1" parent="1">
          <mxGeometry x="690" y="240" width="250" height="400" as="geometry" />
        </mxCell>
        <mxCell id="AY5Ds7lLIV4l-bZscE6Y-9" value="&lt;div style=&quot;&quot;&gt;&lt;span style=&quot;background-color: initial;&quot;&gt;Modelo&lt;/span&gt;&lt;/div&gt;" style="text;html=1;strokeColor=none;fillColor=none;align=left;verticalAlign=middle;whiteSpace=wrap;rounded=0;" vertex="1" parent="AY5Ds7lLIV4l-bZscE6Y-8">
          <mxGeometry x="10" y="10" width="150" height="30" as="geometry" />
        </mxCell>
        <mxCell id="AY5Ds7lLIV4l-bZscE6Y-10" value="Objetos con acciones" style="whiteSpace=wrap;html=1;aspect=fixed;" vertex="1" parent="1">
          <mxGeometry x="725" y="350" width="180" height="180" as="geometry" />
        </mxCell>
        <mxCell id="AY5Ds7lLIV4l-bZscE6Y-11" value="Servidor&lt;br&gt;HTTP" style="rounded=0;whiteSpace=wrap;html=1;" vertex="1" parent="1">
          <mxGeometry x="1010" y="210" width="120" height="480" as="geometry" />
        </mxCell>
      </root>
    </mxGraphModel>
  </diagram>
</mxfile>
